<?xml version="1.0" encoding="UTF-8"?>
<!DOCTYPE svg PUBLIC "-//W3C//DTD SVG 1.1//EN" "http://www.w3.org/Graphics/SVG/1.1/DTD/svg11.dtd">
<!-- Creator: CorelDRAW -->
<svg xmlns="http://www.w3.org/2000/svg" xml:space="preserve" width="127mm" height="38.1mm" version="1.1" style="shape-rendering:geometricPrecision; text-rendering:geometricPrecision; image-rendering:optimizeQuality; fill-rule:evenodd; clip-rule:evenodd"
viewBox="0 0 12700 3810"
 xmlns:xlink="http://www.w3.org/1999/xlink"
 xmlns:xodm="http://www.corel.com/coreldraw/odm/2003">
 <defs>
  <style type="text/css">
   <![CDATA[
    .fil2 {fill:#E31E24}
    .fil0 {fill:#1C3557}
    .fil3 {fill:#2B2A29;fill-rule:nonzero}
    .fil1 {fill:#E31E24;fill-rule:nonzero}
   ]]>
  </style>
 </defs>
 <g id="Layer_x0020_1">
  <metadata id="CorelCorpID_0Corel-Layer"/>
  <g id="_1362080382736">
   <g>
    <path class="fil0" d="M1697.89 1744.03l0 458.86 -252.84 0 0 -1355.3 516.92 0c88.65,0 163.26,11.3 223.82,33.88 60.55,22.59 109.56,53.57 147.02,92.94 37.46,39.37 64.31,85.51 80.54,138.44 16.23,52.92 24.35,109.71 24.35,170.37 0,61.96 -9.06,120.69 -27.16,176.19 -18.11,55.51 -46.2,104.56 -84.29,147.15 -38.07,42.6 -87.09,76.16 -147.02,100.68 -59.93,24.52 -132.35,36.79 -217.26,36.79l-264.08 0zm0 -667.97l0 439.5 222.88 0c82.41,0 144.84,-19.68 187.29,-59.05 42.45,-39.37 63.68,-94.55 63.68,-165.54 0,-70.99 -19.67,-124.56 -59,-160.7 -39.33,-36.14 -103.94,-54.21 -193.85,-54.21l-221 0zm895.26 -228.47l541.27 0c148.59,0 262.52,37.11 341.81,111.33 79.29,74.22 118.93,179.74 118.93,316.56 0,36.14 -4.69,73.9 -14.05,113.27 -9.36,39.36 -23.41,77.12 -42.14,113.26 -18.73,36.14 -42.45,69.7 -71.17,100.68 -28.72,30.98 -63.05,56.79 -103.01,77.44l305.29 522.76 -284.69 0 -245.35 -478.23 -294.05 0 0 478.23 -252.84 0 0 -694.85c171.87,0 343.33,-0.22 515.05,-0.22 76.16,0 136.72,-19.69 181.67,-59.05 44.95,-39.37 67.43,-95.2 67.43,-167.48 0,-136.82 -83.66,-205.23 -250.97,-205.23l-160.4 0 0 -0.21 -352.78 0 0 -228.26zm1213.65 0l252.84 0 0 222.35 -252.84 0 0 -222.35zm252.84 395.66l0 959.64 -252.84 0 0 -959.64 252.84 0zm256.6 -395.66l249.1 0 633.04 933.22 9.37 0 0 -933.22 241.6 0 0 1355.3 -247.22 0c-83.3,-121.63 -885.89,-1332.67 -885.89,-1355.3zm239.46 681.67l5.89 673.63 -245.35 0 0 -1039.25 239.46 365.62zm2073.59 -681.67l0 222.66c-347.32,0 -694.06,0 -1041.34,0l0 -222.66 1041.34 0zm-393.31 395.66l0 959.64 -252.85 0 0 -959.64 252.85 0z"/>
    <path class="fil1" d="M9361.74 2226.78c-113.25,0 -212.34,-18.5 -297.28,-55.5 -84.94,-36.99 -155.73,-87.29 -212.35,-150.9 -56.63,-63.6 -99.1,-137.92 -127.41,-222.94 -28.31,-85.03 -42.47,-175.57 -42.47,-271.63 0,-97.35 15.1,-188.55 45.3,-273.57 30.2,-85.02 73.3,-159.01 129.3,-221.97 55.99,-62.96 124.26,-112.94 204.8,-149.93 80.53,-37 171.13,-55.49 271.8,-55.49 89.34,0 171.77,11.68 247.27,35.04 75.5,23.37 141.56,57.12 198.19,101.25 56.62,44.14 102.87,98.66 138.73,163.56 35.87,64.91 58.2,139.55 67.01,223.92l-254.82 0c-8.81,-40.24 -23.28,-78.21 -43.41,-113.9 -20.13,-35.7 -45.62,-66.53 -76.45,-92.49 -30.83,-25.96 -67.63,-46.73 -110.42,-62.31 -42.78,-15.58 -92.49,-23.37 -149.11,-23.37 -59.14,0 -114.2,10.71 -165.16,32.13 -50.96,21.42 -95.32,51.93 -133.07,91.52 -37.75,39.59 -67.32,86.97 -88.72,142.14 -21.39,55.17 -32.08,116.5 -32.08,184 0,63.61 9.75,124.94 29.25,184 19.51,59.07 47.82,111.31 84.94,156.75 37.12,45.43 81.79,81.78 134.02,109.04 52.22,27.26 110.42,40.89 174.59,40.89 98.15,0 179.32,-25.32 243.49,-75.94 64.18,-50.63 106.96,-118.78 128.36,-204.45l258.59 0c-11.33,70.1 -32.4,136.3 -63.23,198.61 -30.83,62.3 -72.04,116.5 -123.64,162.58 -51.59,46.08 -113.56,82.43 -185.92,109.04 -72.35,26.61 -155.72,39.92 -250.1,39.92z"/>
    <path class="fil2" d="M7345.86 847.59l249.1 0 633.04 933.22 9.37 0 0 -933.22 241.6 0 0 1355.3 -247.22 0c-83.3,-121.63 -885.89,-1332.67 -885.89,-1355.3zm239.46 681.67l5.89 673.63 -245.35 0 0 -1039.25 239.46 365.62z"/>
    <path class="fil2" d="M10178.01 824.85l541.27 0c148.59,0 262.53,37.1 341.81,111.32 79.29,74.22 118.93,179.74 118.93,316.56 0,36.14 -4.68,73.9 -14.04,113.27 -9.37,39.36 -23.41,77.12 -42.14,113.26 -18.73,36.14 -42.46,69.7 -71.18,100.68 -28.71,30.98 -63.05,56.8 -103,77.45l305.28 522.76 -284.68 0 -245.36 -478.23 -294.05 0 0 478.23 -252.84 0 0 -694.85c171.87,0 343.33,-0.23 515.05,-0.23 76.17,0 136.73,-19.69 181.68,-59.05 44.95,-39.37 67.42,-95.2 67.42,-167.48 0,-136.82 -83.66,-205.23 -250.97,-205.23l-160.39 0 0 -0.2 -352.79 0 0 -228.26z"/>
   </g>
   <path class="fil3" d="M2534.48 2879.03l112.06 0c72.15,0 159.16,-47.53 159.16,-150.25 0,-101.86 -73.85,-150.25 -152.8,-150.25l-118.42 0 0 300.5zm53.48 -48.38l0 -203.73 48.81 0c65.37,0 112.91,28.86 112.91,101.86 0,73.01 -54.76,101.87 -121.82,101.87l-39.9 0zm267.4 48.38l53.48 0 0 -300.5 -53.48 0 0 300.5zm386.24 -175.71l-115.02 0 0 48.38 61.54 0 0 70.88c-18.67,10.61 -43.29,15.71 -70.46,15.71 -61.96,0 -103.13,-47.54 -103.13,-111.63 0,-59.85 41.17,-107.38 103.13,-107.38 30.14,0 59.43,10.61 78.53,29.28l39.47 -39.89c-31.41,-28.02 -72.58,-37.78 -118.42,-37.78 -92.53,0 -158.74,62.82 -158.74,159.17 0,93.8 66.21,156.61 158.74,156.61 46.26,0 87.86,-10.18 124.36,-29.71l0 -153.64zm61.97 175.71l53.48 0 0 -300.5 -53.48 0 0 300.5zm180.81 0l53.48 0 0 -252.11 92.1 0 0 -48.39 -237.68 0 0 48.39 92.1 0 0 252.11zm109.51 0l59.84 0 27.17 -68.75 130.3 0 28.01 68.75 61.12 0 -129.45 -300.5 -46.27 0 -130.72 300.5zm105.26 -114.59l47.11 -122.24 46.26 122.24 -93.37 0zm234.71 114.59l181.24 0 0 -48.38 -127.76 0 0 -252.12 -53.48 0 0 300.5zm549.66 -148.97c0,93.8 66.21,156.61 158.74,156.61 93.8,-1.69 160.01,-64.51 160.01,-158.31 0,-96.35 -66.21,-159.17 -160.01,-157.47 -92.53,0 -158.74,62.82 -158.74,159.17zm56.02 -3.4c0,-59.85 41.17,-107.38 103.14,-107.38 62.39,0 103.56,47.53 103.56,107.38 0,64.09 -41.17,111.63 -103.56,111.63 -61.97,0 -103.14,-47.54 -103.14,-111.63zm313.66 152.37l53.48 0 0 -124.78 132.43 0 0 -48.39 -132.43 0 0 -78.94 140.49 0 0 -48.39 -193.97 0 0 300.5zm243.63 0l53.48 0 0 -124.78 132.43 0 0 -48.39 -132.43 0 0 -78.94 140.49 0 0 -48.39 -193.97 0 0 300.5zm429.96 -277.16c-23.34,-22.07 -54.75,-30.98 -86.16,-30.98 -55.6,0 -110.78,28.86 -110.78,90.83 0,107.38 142.61,69.61 142.61,135.4 0,27.59 -28.01,41.17 -52.63,41.17 -23.77,0 -46.26,-11.46 -59.42,-31.41l-40.32 39.05c24.62,29.28 61.12,40.74 98.47,40.74 58.99,0 109.93,-31.4 109.93,-95.92 0,-106.96 -142.61,-72.58 -142.61,-132.85 0,-27.59 24.61,-38.62 49.23,-38.62 20.8,0 41.17,7.64 52.63,23.77l39.05 -41.18zm57.3 277.16l206.7 0 0 -48.38 -153.22 0 0 -81.49 137.94 0 0 -48.39 -137.94 0 0 -73.85 145.58 0 0 -48.39 -199.06 0 0 300.5zm320.88 0l53.48 0 0 -252.11 92.1 0 0 -48.39 -237.69 0 0 48.39 92.11 0 0 252.11zm713.91 -277.16c-23.35,-22.07 -54.76,-30.98 -86.17,-30.98 -55.6,0 -110.77,28.86 -110.77,90.83 0,107.38 142.61,69.61 142.61,135.4 0,27.59 -28.02,41.17 -52.63,41.17 -23.77,0 -46.27,-11.46 -59.42,-31.41l-40.33 39.05c24.62,29.28 61.12,40.74 98.47,40.74 59,0 109.93,-31.4 109.93,-95.92 0,-106.96 -142.61,-72.58 -142.61,-132.85 0,-27.59 24.62,-38.62 49.24,-38.62 20.79,0 41.17,7.64 52.63,23.77l39.05 -41.18zm305.17 16.56c-29.71,-34.38 -64.52,-47.54 -105.26,-47.54 -92.53,0 -158.74,62.82 -158.74,159.17 0,93.8 66.21,156.61 158.74,156.61 44.14,0 84.89,-16.12 112.05,-53.48l-44.14 -31.4c-19.95,25.46 -43.3,36.5 -67.49,36.5 -61.97,0 -103.14,-47.54 -103.14,-111.63 0,-59.85 41.17,-107.38 103.14,-107.38 20.8,0 41.17,6.36 63.24,29.71l41.6 -30.56zm42.87 260.6l53.48 0 0 -127.33 39.04 0 69.61 127.33 64.52 0 -79.8 -132.85c44.57,-6.36 69.61,-38.2 69.61,-81.49 0,-67.48 -54.33,-86.16 -112.05,-86.16l-104.41 0 0 300.5zm53.48 -173.17l0 -81.49 46.26 0c27.59,0 60.7,4.24 60.7,39.9 0,39.05 -35.23,41.59 -65.37,41.59l-41.59 0zm213.91 173.17l206.71 0 0 -48.38 -153.23 0 0 -81.49 137.95 0 0 -48.39 -137.95 0 0 -73.85 145.59 0 0 -48.39 -199.07 0 0 300.5zm259.34 0l206.7 0 0 -48.38 -153.22 0 0 -81.49 137.94 0 0 -48.39 -137.94 0 0 -73.85 145.58 0 0 -48.39 -199.06 0 0 300.5zm259.33 0l53.48 0 0 -230.47 0.85 0 148.55 230.47 67.91 0 0 -300.5 -53.48 0 0 223.26 -0.85 0 -145.58 -223.26 -70.88 0 0 300.5zm463.49 0l53.48 0 0 -124.36 38.2 0c63.66,0 120.12,-13.58 120.12,-89.13 0,-66.64 -52.64,-87.01 -110.78,-87.01l-101.02 0 0 300.5zm53.48 -170.2l0 -84.46 38.2 0c28.86,0 64.09,5.09 64.09,42.02 0,40.75 -39.47,42.44 -70.03,42.44l-32.26 0zm205.85 170.2l53.48 0 0 -127.33 39.05 0 69.61 127.33 64.51 0 -79.79 -132.85c44.56,-6.36 69.61,-38.2 69.61,-81.49 0,-67.48 -54.33,-86.16 -112.05,-86.16l-104.42 0 0 300.5zm53.48 -173.17l0 -81.49 46.27 0c27.58,0 60.69,4.24 60.69,39.9 0,39.05 -35.23,41.59 -65.36,41.59l-41.6 0zm212.65 173.17l53.48 0 0 -300.5 -53.48 0 0 300.5zm119.26 0l53.48 0 0 -230.47 0.85 0 148.56 230.47 67.91 0 0 -300.5 -53.48 0 0 223.26 -0.85 0 -145.58 -223.26 -70.89 0 0 300.5zm399.4 0l53.48 0 0 -252.11 92.11 0 0 -48.39 -237.69 0 0 48.39 92.1 0 0 252.11zm180.81 0l53.48 0 0 -300.5 -53.48 0 0 300.5zm119.27 0l53.48 0 0 -230.47 0.85 0 148.55 230.47 67.91 0 0 -300.5 -53.47 0 0 223.26 -0.85 0 -145.59 -223.26 -70.88 0 0 300.5zm604.83 -175.71l-115.02 0 0 48.38 61.54 0 0 70.88c-18.68,10.61 -43.29,15.71 -70.46,15.71 -61.96,0 -103.14,-47.54 -103.14,-111.63 0,-59.85 41.18,-107.38 103.14,-107.38 30.14,0 59.42,10.61 78.53,29.28l39.47 -39.89c-31.41,-28.02 -72.58,-37.78 -118.42,-37.78 -92.53,0 -158.74,62.82 -158.74,159.17 0,93.8 66.21,156.61 158.74,156.61 46.26,0 87.86,-10.18 124.36,-29.71l0 -153.64zm-5893.78 -142.62l0 424.44 43.29 0 0 -424.44 -43.29 0zm1932.9 0l0 424.44 43.29 0 0 -424.44 -43.29 0z"/>
   <polygon class="fil3" points="11254.93,2802.64 10400.94,2802.64 10400.94,2743.21 11254.93,2743.21 "/>
   <polygon class="fil3" points="2299.04,2802.64 1445.05,2802.64 1445.05,2743.21 2299.04,2743.21 "/>
  </g>
 </g>
</svg>
